<svg width="201" height="71" viewBox="0 0 201 71" fill="none" xmlns="http://www.w3.org/2000/svg">
<path d="M180.631 37.5781L182.036 38.9338C182.111 39.0054 182.171 39.0906 182.212 39.1844C182.253 39.2783 182.274 39.379 182.274 39.4806C182.274 39.5823 182.253 39.683 182.212 39.7769C182.171 39.8707 182.111 39.9559 182.036 40.0275L172.963 48.7083C172.889 48.7805 172.8 48.8378 172.702 48.8769C172.604 48.916 172.499 48.9361 172.393 48.9361C172.287 48.9361 172.182 48.916 172.084 48.8769C171.986 48.8378 171.898 48.7805 171.823 48.7083L170.418 47.3526C170.343 47.281 170.283 47.1958 170.242 47.102C170.201 47.0081 170.18 46.9074 170.18 46.8057C170.18 46.7041 170.201 46.6034 170.242 46.5095C170.283 46.4157 170.343 46.3305 170.418 46.2589L179.491 37.5781C179.565 37.5059 179.654 37.4486 179.752 37.4095C179.85 37.3704 179.955 37.3503 180.061 37.3503C180.167 37.3503 180.272 37.3704 180.37 37.4095C180.467 37.4486 180.556 37.5059 180.631 37.5781ZM167.993 48.5773L166.588 49.9253C166.513 49.9969 166.453 50.0821 166.412 50.1759C166.371 50.2698 166.35 50.3704 166.35 50.4721C166.35 50.5738 166.371 50.6745 166.412 50.7684C166.453 50.8622 166.513 50.9474 166.588 51.019L168.001 52.3747C168.076 52.4468 168.165 52.5042 168.262 52.5433C168.36 52.5824 168.465 52.6025 168.571 52.6025C168.677 52.6025 168.782 52.5824 168.88 52.5433C168.978 52.5042 169.067 52.4468 169.141 52.3747L170.554 51.0267C170.63 50.9551 170.689 50.8699 170.73 50.7761C170.771 50.6822 170.792 50.5815 170.792 50.4798C170.792 50.3782 170.771 50.2775 170.73 50.1836C170.689 50.0898 170.63 50.0046 170.554 49.933L169.149 48.5773C169.074 48.5028 168.985 48.4435 168.885 48.403C168.786 48.3625 168.679 48.3416 168.571 48.3416C168.463 48.3416 168.356 48.3625 168.257 48.403C168.158 48.4435 168.068 48.5028 167.993 48.5773ZM183.305 41.2599L178.11 46.2589C178.035 46.3305 177.975 46.4157 177.934 46.5095C177.893 46.6034 177.872 46.7041 177.872 46.8057C177.872 46.9074 177.893 47.0081 177.934 47.102C177.975 47.1958 178.035 47.281 178.11 47.3526L179.515 48.7083C179.59 48.7816 179.679 48.8399 179.778 48.8797C179.876 48.9195 179.982 48.94 180.089 48.94C180.196 48.94 180.302 48.9195 180.4 48.8797C180.499 48.8399 180.588 48.7816 180.663 48.7083L185.882 43.7093C185.957 43.6377 186.017 43.5525 186.058 43.4587C186.098 43.3648 186.119 43.2641 186.119 43.1625C186.119 43.0608 186.098 42.9601 186.058 42.8662C186.017 42.7724 185.957 42.6872 185.882 42.6156L184.477 41.2599C184.402 41.183 184.311 41.1216 184.21 41.0797C184.109 41.0377 184.001 41.0161 183.891 41.0161C183.781 41.0161 183.672 41.0377 183.571 41.0797C183.471 41.1216 183.38 41.183 183.305 41.2599ZM171.799 52.2745L166.58 57.2658C166.504 57.3375 166.443 57.4232 166.401 57.5177C166.36 57.6123 166.338 57.7139 166.338 57.8165C166.338 57.9191 166.36 58.0207 166.401 58.1152C166.443 58.2098 166.504 58.2955 166.58 58.3672L167.993 59.7151C168.068 59.7873 168.157 59.8447 168.254 59.8838C168.352 59.9229 168.457 59.943 168.563 59.943C168.669 59.943 168.774 59.9229 168.872 59.8838C168.97 59.8447 169.059 59.7873 169.133 59.7151L174.352 54.7162C174.429 54.6445 174.489 54.5588 174.531 54.4642C174.572 54.3697 174.594 54.2681 174.594 54.1655C174.594 54.0629 174.572 53.9613 174.531 53.8668C174.489 53.7722 174.429 53.6865 174.352 53.6148L172.947 52.2668C172.872 52.194 172.782 52.1363 172.683 52.0971C172.584 52.058 172.478 52.0382 172.371 52.0389C172.264 52.0396 172.159 52.0608 172.06 52.1013C171.962 52.1418 171.873 52.2007 171.799 52.2745ZM171.799 59.5765L166.572 64.5755C166.497 64.6471 166.437 64.7322 166.396 64.8261C166.355 64.92 166.334 65.0206 166.334 65.1223C166.334 65.224 166.355 65.3247 166.396 65.4186C166.437 65.5124 166.497 65.5976 166.572 65.6692L167.977 67.0249C168.052 67.0982 168.141 67.1565 168.24 67.1963C168.338 67.2361 168.444 67.2566 168.551 67.2566C168.658 67.2566 168.764 67.2361 168.863 67.1963C168.961 67.1565 169.05 67.0982 169.125 67.0249L174.344 62.0259C174.419 61.9543 174.479 61.8691 174.52 61.7753C174.561 61.6814 174.582 61.5807 174.582 61.479C174.582 61.3773 174.561 61.2767 174.52 61.1828C174.479 61.0889 174.419 61.0038 174.344 60.9322L172.939 59.5765C172.79 59.44 172.591 59.3638 172.385 59.3638C172.179 59.3638 171.98 59.44 171.831 59.5765H171.799ZM187.094 44.9417L178.062 53.6071C177.985 53.6788 177.924 53.7645 177.883 53.859C177.841 53.9536 177.82 54.0552 177.82 54.1578C177.82 54.2604 177.841 54.362 177.883 54.4566C177.924 54.5511 177.985 54.6368 178.062 54.7085L179.467 56.0565C179.541 56.1286 179.63 56.186 179.728 56.2251C179.826 56.2642 179.931 56.2843 180.037 56.2843C180.143 56.2843 180.248 56.2642 180.346 56.2251C180.443 56.186 180.532 56.1286 180.607 56.0565L189.672 47.3834C189.748 47.3117 189.809 47.226 189.85 47.1315C189.892 47.0369 189.913 46.9353 189.913 46.8327C189.913 46.7301 189.892 46.6285 189.85 46.5339C189.809 46.4394 189.748 46.3537 189.672 46.282L188.267 44.934C188.192 44.8618 188.103 44.8045 188.005 44.7654C187.907 44.7263 187.803 44.7062 187.697 44.7062C187.591 44.7062 187.486 44.7263 187.388 44.7654C187.29 44.8045 187.201 44.8618 187.126 44.934L187.094 44.9417ZM175.605 55.9332L174.2 57.2889C174.124 57.3605 174.065 57.4457 174.024 57.5395C173.983 57.6334 173.962 57.7341 173.962 57.8358C173.962 57.9374 173.983 58.0381 174.024 58.132C174.065 58.2258 174.124 58.311 174.2 58.3826L175.605 59.7306C175.679 59.8028 175.768 59.8601 175.866 59.8992C175.964 59.9383 176.069 59.9584 176.175 59.9584C176.281 59.9584 176.386 59.9383 176.484 59.8992C176.581 59.8601 176.67 59.8028 176.745 59.7306L178.158 58.3749C178.233 58.3033 178.293 58.2181 178.334 58.1243C178.374 58.0304 178.395 57.9297 178.395 57.828C178.395 57.7264 178.374 57.6257 178.334 57.5318C178.293 57.438 178.233 57.3528 178.158 57.2812L176.753 55.9255C176.603 55.7867 176.403 55.7091 176.195 55.7091C175.987 55.7091 175.787 55.7867 175.637 55.9255L175.605 55.9332ZM164.115 66.9324L162.734 68.3189C162.659 68.3905 162.599 68.4757 162.558 68.5695C162.518 68.6634 162.497 68.7641 162.497 68.8657C162.497 68.9674 162.518 69.0681 162.558 69.162C162.599 69.2558 162.659 69.341 162.734 69.4126L164.139 70.7683C164.214 70.8416 164.303 70.8999 164.402 70.9397C164.5 70.9795 164.606 71 164.713 71C164.82 71 164.926 70.9795 165.025 70.9397C165.123 70.8999 165.213 70.8416 165.287 70.7683L166.692 69.4203C166.769 69.3486 166.83 69.2629 166.871 69.1684C166.913 69.0738 166.934 68.9722 166.934 68.8696C166.934 68.767 166.913 68.6654 166.871 68.5709C166.83 68.4763 166.769 68.3906 166.692 68.3189L165.263 66.9324C165.115 66.7926 164.915 66.7136 164.707 66.7121C164.499 66.7107 164.298 66.7869 164.147 66.9247L164.115 66.9324ZM164.115 52.2283L158.888 57.2273C158.813 57.2989 158.753 57.384 158.712 57.4779C158.672 57.5718 158.651 57.6724 158.651 57.7741C158.651 57.8758 158.672 57.9765 158.712 58.0703C158.753 58.1642 158.813 58.2494 158.888 58.321L160.293 59.6766C160.368 59.75 160.457 59.8083 160.556 59.8481C160.654 59.8879 160.76 59.9084 160.867 59.9084C160.974 59.9084 161.08 59.8879 161.179 59.8481C161.277 59.8083 161.367 59.75 161.441 59.6766L166.66 54.6854C166.737 54.6137 166.797 54.528 166.839 54.4334C166.88 54.3389 166.902 54.2373 166.902 54.1347C166.902 54.0321 166.88 53.9305 166.839 53.8359C166.797 53.7414 166.737 53.6557 166.66 53.584L165.255 52.236C165.11 52.1083 164.921 52.0361 164.724 52.0333C164.527 52.0305 164.336 52.0971 164.187 52.2206L164.115 52.2283ZM156.431 59.5842L155.018 60.9322C154.942 61.0039 154.881 61.0896 154.839 61.1841C154.798 61.2787 154.776 61.3803 154.776 61.4829C154.776 61.5855 154.798 61.6871 154.839 61.7816C154.881 61.8762 154.942 61.9619 155.018 62.0336L156.423 63.3816C156.498 63.4537 156.587 63.5111 156.684 63.5502C156.782 63.5893 156.887 63.6094 156.993 63.6094C157.099 63.6094 157.204 63.5893 157.302 63.5502C157.4 63.5111 157.489 63.4537 157.563 63.3816L158.976 62.0336C159.052 61.962 159.111 61.8768 159.152 61.783C159.193 61.6891 159.214 61.5884 159.214 61.4867C159.214 61.3851 159.193 61.2844 159.152 61.1905C159.111 61.0967 159.052 61.0115 158.976 60.9399L157.571 59.5842C157.425 59.4576 157.236 59.3868 157.039 59.3854C156.842 59.3839 156.651 59.452 156.503 59.5765L156.431 59.5842ZM175.581 48.5927L174.168 49.9407C174.091 50.0124 174.03 50.0981 173.989 50.1926C173.947 50.2872 173.926 50.3888 173.926 50.4914C173.926 50.594 173.947 50.6956 173.989 50.7901C174.03 50.8847 174.091 50.9704 174.168 51.0421L175.573 52.3901C175.647 52.4623 175.736 52.5196 175.834 52.5587C175.932 52.5978 176.037 52.6179 176.143 52.6179C176.249 52.6179 176.354 52.5978 176.451 52.5587C176.549 52.5196 176.638 52.4623 176.713 52.3901L178.126 51.0421C178.201 50.9705 178.261 50.8853 178.302 50.7915C178.342 50.6976 178.363 50.5969 178.363 50.4952C178.363 50.3936 178.342 50.2929 178.302 50.199C178.261 50.1052 178.201 50.02 178.126 49.9484L176.721 48.5927C176.575 48.4661 176.385 48.3953 176.188 48.3939C175.991 48.3925 175.801 48.4605 175.653 48.585L175.581 48.5927ZM164.091 59.5919L162.678 60.9399C162.603 61.0115 162.543 61.0967 162.502 61.1905C162.461 61.2844 162.44 61.3851 162.44 61.4867C162.44 61.5884 162.461 61.6891 162.502 61.783C162.543 61.8768 162.603 61.962 162.678 62.0336L164.083 63.3893C164.158 63.4615 164.246 63.5187 164.344 63.5578C164.442 63.597 164.547 63.6171 164.653 63.6171C164.759 63.6171 164.864 63.597 164.962 63.5578C165.06 63.5187 165.148 63.4615 165.223 63.3893L166.636 62.0413C166.713 61.9696 166.773 61.8839 166.815 61.7893C166.856 61.6948 166.878 61.5932 166.878 61.4906C166.878 61.388 166.856 61.2864 166.815 61.1918C166.773 61.0973 166.713 61.0116 166.636 60.9399L165.231 59.5919C165.085 59.4653 164.896 59.3945 164.699 59.3931C164.502 59.3916 164.311 59.4597 164.163 59.5842L164.091 59.5919ZM190.956 48.6158L181.883 57.2889C181.808 57.3605 181.748 57.4457 181.708 57.5395C181.667 57.6334 181.646 57.7341 181.646 57.8358C181.646 57.9374 181.667 58.0381 181.708 58.132C181.748 58.2258 181.808 58.311 181.883 58.3826L183.289 59.7383C183.363 59.8104 183.452 59.8678 183.55 59.9069C183.648 59.946 183.753 59.9661 183.859 59.9661C183.965 59.9661 184.07 59.946 184.167 59.9069C184.265 59.8678 184.354 59.8104 184.429 59.7383L193.494 51.0652C193.57 50.9935 193.631 50.9078 193.672 50.8133C193.714 50.7187 193.735 50.6171 193.735 50.5145C193.735 50.4119 193.714 50.3103 193.672 50.2157C193.631 50.1212 193.57 50.0355 193.494 49.9638L192.088 48.6158C191.938 48.4724 191.735 48.3919 191.522 48.3919C191.31 48.3919 191.107 48.4724 190.956 48.6158ZM179.451 59.6227L174.232 64.6217C174.156 64.6933 174.097 64.7785 174.056 64.8723C174.015 64.9662 173.994 65.0669 173.994 65.1685C173.994 65.2702 174.015 65.3709 174.056 65.4648C174.097 65.5586 174.156 65.6438 174.232 65.7154L175.645 67.0711C175.719 67.1433 175.808 67.2005 175.906 67.2397C176.004 67.2788 176.109 67.2989 176.215 67.2989C176.321 67.2989 176.426 67.2788 176.524 67.2397C176.622 67.2005 176.71 67.1433 176.785 67.0711L182.004 62.0721C182.079 62.0005 182.139 61.9153 182.18 61.8215C182.22 61.7276 182.241 61.6269 182.241 61.5252C182.241 61.4236 182.22 61.3229 182.18 61.229C182.139 61.1352 182.079 61.05 182.004 60.9784L180.599 59.6227C180.524 59.5482 180.434 59.4889 180.335 59.4484C180.235 59.4079 180.129 59.387 180.021 59.387C179.913 59.387 179.806 59.4079 179.707 59.4484C179.607 59.4889 179.517 59.5482 179.443 59.6227H179.451ZM171.815 66.9324L170.394 68.3189C170.317 68.3906 170.257 68.4763 170.215 68.5709C170.174 68.6654 170.152 68.767 170.152 68.8696C170.152 68.9722 170.174 69.0738 170.215 69.1684C170.257 69.2629 170.317 69.3486 170.394 69.4203L171.799 70.7683C171.874 70.8405 171.962 70.8978 172.06 70.9369C172.158 70.976 172.263 70.9961 172.369 70.9961C172.475 70.9961 172.58 70.976 172.678 70.9369C172.776 70.8978 172.864 70.8405 172.939 70.7683L174.352 69.4203C174.427 69.3487 174.487 69.2635 174.528 69.1697C174.569 69.0758 174.59 68.9751 174.59 68.8735C174.59 68.7718 174.569 68.6711 174.528 68.5772C174.487 68.4834 174.427 68.3982 174.352 68.3266L172.947 66.9709C172.875 66.8962 172.788 66.8358 172.692 66.7934C172.596 66.7509 172.491 66.7272 172.385 66.7236C172.279 66.7201 172.174 66.7367 172.074 66.7725C171.975 66.8083 171.884 66.8627 171.807 66.9324H171.815Z" fill="url(#paint0_linear_676_3389)"/>
<path d="M196.127 48.5698L186.083 58.1286C189.824 54.4776 189.568 48.3541 185.489 44.4027L154.745 14.671C154.418 14.3562 154.234 13.9296 154.234 13.4848C154.234 13.04 154.418 12.6134 154.745 12.2986L167.158 0.490669C167.486 0.17647 167.931 0 168.395 0C168.858 0 169.303 0.17647 169.631 0.490669L196.224 26.2325C197.747 27.7049 198.953 29.4508 199.772 31.3705C200.592 33.2901 201.009 35.3459 201 37.4203C200.991 39.4947 200.556 41.547 199.72 43.4601C198.884 45.3732 197.663 47.1095 196.127 48.5698Z" fill="url(#paint1_linear_676_3389)"/>
<path d="M0 21.5565C0 15.0556 5.09848 10.6651 11.7064 10.6651C13.5811 10.6102 15.4338 11.0639 17.0516 11.9741C18.6693 12.8843 19.9865 14.214 20.8516 15.8104L16.8371 17.7052C16.3468 16.7972 15.6112 16.0321 14.7072 15.4901C13.8033 14.9481 12.7641 14.6491 11.6984 14.6242C7.68385 14.6242 4.79338 17.5589 4.79338 21.5565C4.79338 25.5541 7.69188 28.4888 11.6984 28.4888C12.7645 28.4656 13.8044 28.1672 14.7086 27.625C15.6129 27.0828 16.3482 26.3169 16.8371 25.4078L20.8516 27.2718C19.9843 28.8686 18.6676 30.2001 17.051 31.115C15.4344 32.03 13.5828 32.4917 11.7064 32.4478C5.09848 32.4401 0 28.0189 0 21.5565Z" fill="url(#paint2_linear_676_3389)"/>
<path d="M22.2648 24.4146C22.2553 22.817 22.7406 21.2527 23.6592 19.9201C24.5778 18.5875 25.8883 17.5466 27.4244 16.9296C28.9606 16.3126 30.6532 16.1472 32.2875 16.4544C33.9218 16.7616 35.4242 17.5275 36.604 18.655C37.7839 19.7826 38.5881 21.2209 38.9145 22.7875C39.241 24.3541 39.0751 25.9785 38.4378 27.4545C37.8005 28.9305 36.7205 30.1917 35.335 31.0781C33.9494 31.9644 32.3206 32.436 30.6552 32.433C29.5425 32.482 28.4314 32.3084 27.3924 31.9232C26.3535 31.538 25.4094 30.9496 24.6203 30.1955C23.8311 29.4414 23.2142 28.538 22.8087 27.5427C22.4032 26.5475 22.218 25.4822 22.2648 24.4146ZM34.734 24.4146C34.734 22.05 33.2888 20.0011 30.6552 20.0011C28.0217 20.0011 26.6407 22.05 26.6407 24.4146C26.6407 26.7793 28.0859 28.8667 30.6552 28.8667C33.2245 28.8667 34.734 26.8255 34.734 24.4146Z" fill="url(#paint3_linear_676_3389)"/>
<path d="M52.8557 32.0631V30.1067C52.2802 30.828 51.5386 31.4118 50.689 31.8126C49.8394 32.2135 48.9047 32.4205 47.9579 32.4175C43.9433 32.4175 40.9164 29.5136 40.9164 24.3992C40.9164 19.4464 43.9112 16.4193 47.9579 16.4193C48.9063 16.4073 49.8442 16.6103 50.6953 17.0118C51.5465 17.4134 52.2867 18.0021 52.8557 18.7301V11.0122H57.0629V32.0631H52.8557ZM52.8557 27.1412V21.7495C52.438 21.2157 51.8976 20.7817 51.2765 20.4811C50.6554 20.1805 49.9704 20.0215 49.2747 20.0164C46.866 20.0164 45.2601 21.8111 45.2601 24.4299C45.2601 27.0488 46.9061 28.882 49.2747 28.882C49.971 28.876 50.6565 28.7159 51.2777 28.4139C51.8988 28.1119 52.4389 27.6764 52.8557 27.1412Z" fill="url(#paint4_linear_676_3389)"/>
<path d="M59.9293 24.414C59.9 23.3662 60.0918 22.3236 60.4934 21.3488C60.8949 20.374 61.4979 19.4872 62.266 18.7417C63.034 17.9962 63.9513 17.4075 64.9627 17.011C65.9741 16.6144 67.0587 16.4182 68.1511 16.4342C72.9204 16.4342 76.108 19.8387 76.108 24.7914V25.7388H64.3052C64.6023 27.6028 66.176 29.151 68.8738 29.151C70.416 29.1389 71.9059 28.6135 73.0891 27.6644L74.9598 30.3141C73.1154 31.7527 70.792 32.5047 68.4161 32.4323C63.5826 32.44 59.9293 29.3128 59.9293 24.414ZM68.1511 19.7154C67.1883 19.6562 66.2401 19.9647 65.5136 20.5737C64.787 21.1827 64.3411 22.0426 64.2731 22.9659H72.1256C72.0923 22.5006 71.9624 22.0464 71.7434 21.63C71.5244 21.2136 71.2208 20.8434 70.8505 20.5413C70.4802 20.2391 70.0506 20.0111 69.587 19.8706C69.1234 19.7301 68.6352 19.6799 68.1511 19.7232V19.7154Z" fill="url(#paint5_linear_676_3389)"/>
<path d="M78.8781 32.063V16.8198H83.0532V18.8686C83.6733 18.1462 84.4448 17.5569 85.3176 17.139C86.1904 16.721 87.145 16.4836 88.1196 16.4423V20.3552C87.7387 20.2853 87.3511 20.2543 86.9634 20.2628C86.2215 20.2734 85.4903 20.4331 84.8168 20.7316C84.1433 21.0302 83.5425 21.4608 83.0532 21.9958V32.063H78.8781Z" fill="url(#paint6_linear_676_3389)"/>
<path d="M105.583 32.0632V23.1976H95.2176V32.0632H90.5928V11.0122H95.2577V19.2847H105.623V11.0122H110.328V32.0632H105.583Z" fill="url(#paint7_linear_676_3389)"/>
<path d="M124.957 32.0632V30.1376C124.239 30.8757 123.368 31.4623 122.4 31.8602C121.433 32.258 120.389 32.4583 119.337 32.4483C115.852 32.4483 114.206 30.6151 114.206 27.6497V16.8199H118.381V26.063C118.381 28.1812 119.538 28.8744 121.312 28.8744C122.012 28.8632 122.701 28.7018 123.327 28.4019C123.954 28.102 124.503 27.6713 124.933 27.1413V16.8199H129.132V32.0632H124.957Z" fill="url(#paint8_linear_676_3389)"/>
<path d="M133.01 32.0631V11.0122H137.161V18.7763C137.732 18.0477 138.473 17.4587 139.326 17.0571C140.178 16.6556 141.117 16.4529 142.067 16.4655C146.082 16.4655 149.109 19.4926 149.109 24.4454C149.109 29.5598 146.082 32.4637 142.067 32.4637C141.12 32.4644 140.185 32.2564 139.334 31.8558C138.483 31.4551 137.74 30.8726 137.161 30.1529V32.1094L133.01 32.0631ZM140.806 28.8743C143.215 28.8743 144.821 27.0719 144.821 24.4223C144.821 21.7726 143.215 20.0087 140.806 20.0087C140.104 20.0235 139.413 20.1897 138.787 20.4951C138.16 20.8004 137.613 21.237 137.185 21.7726V27.1644C137.62 27.688 138.17 28.1129 138.796 28.4085C139.422 28.7041 140.109 28.8632 140.806 28.8743Z" fill="url(#paint9_linear_676_3389)"/>
<path d="M30.4706 42.3153C30.6142 42.313 30.756 42.2843 30.8882 42.2305L39.6399 38.5256C39.8718 38.4123 40.0503 38.2187 40.1392 37.984C40.2281 37.7493 40.2209 37.4909 40.1189 37.2611C40.017 37.0314 39.828 36.8472 39.59 36.746C39.3521 36.6447 39.083 36.6338 38.837 36.7155L30.0772 40.4204C29.8568 40.5092 29.6755 40.6689 29.5646 40.872C29.4537 41.0752 29.42 41.3091 29.4695 41.5334C29.5189 41.7578 29.6483 41.9586 29.8355 42.1013C30.0226 42.244 30.2557 42.3197 30.4947 42.3153H30.4706Z" fill="url(#paint10_linear_676_3389)"/>
<path d="M50.3024 37.8317C45.485 37.8317 42.5784 40.4043 42.5784 44.7177C40.8837 45.0725 39.3713 45.9839 38.3026 47.2947C37.2339 48.6054 36.676 50.233 36.7252 51.8964C36.7252 52.0813 36.7252 52.2739 36.7252 52.4664H28.0377C26.8735 52.4664 26.4318 52.2508 26.2231 52.0736C25.9138 51.6697 25.7708 51.1705 25.8216 50.6717V44.063H21.2772V50.9953C21.2772 51.8502 21.0764 52.1198 20.956 52.2122C20.5574 52.424 20.1004 52.5128 19.6473 52.4664H7.83641C7.0335 52.4664 6.53569 52.4664 6.12621 52.4125C5.78395 52.3953 5.4485 52.3142 5.13864 52.1737C4.94483 52.082 4.78914 51.93 4.69703 51.7424C4.59499 51.4764 4.54862 51.1937 4.56054 50.9105V46.289H0.0160605V51.442C-0.00139641 52.2038 0.109775 52.9634 0.345257 53.6911C0.559554 54.2988 0.952777 54.8339 1.47737 55.2316C2.09705 55.6706 2.81433 55.9659 3.57295 56.0943C4.60431 56.2865 5.65384 56.3743 6.7043 56.3562H20.3538C20.7713 56.3562 21.1567 56.3562 21.6224 56.31C22.0533 56.2796 22.4805 56.2125 22.899 56.1097C23.3141 56.0048 23.7096 55.8385 24.0713 55.6168C24.3411 55.451 24.5845 55.2486 24.7939 55.016C25.1256 55.5042 25.6171 55.8727 26.191 56.0635C26.7851 56.2484 52.5907 56.3408 57.8016 56.3562H57.914L61.1257 52.7822V46.135C61.1176 42.1297 55.5535 37.8317 50.3024 37.8317ZM40.3945 51.9273C40.3377 51.3794 40.4025 50.8263 40.5847 50.3042C40.7668 49.7822 41.0622 49.3031 41.4513 48.8985C41.8405 48.4939 42.3146 48.173 42.8423 47.9568C43.3701 47.7407 43.9397 47.6343 44.5134 47.6447C45.1369 47.6367 45.7542 47.7631 46.32 48.0144C47.0548 48.3852 47.6625 48.9517 48.0698 49.6459C48.4772 50.34 48.6669 51.1322 48.6163 51.9273C48.6163 52.1198 48.6163 52.3201 48.6163 52.5049H40.4266C40.4037 52.3132 40.393 52.1203 40.3945 51.9273ZM46.6893 44.8024C46.6893 42.5918 48.0061 41.3209 50.3024 41.3209C52.5988 41.3209 57.0308 44.2478 57.0308 46.289V52.5049H52.2615C52.2615 52.3047 52.2615 52.1121 52.2615 51.9273C52.3252 50.3068 51.8063 48.7145 50.7919 47.4174C49.7774 46.1202 48.3289 45.197 46.6893 44.8024Z" fill="url(#paint11_linear_676_3389)"/>
<path d="M12.9189 58.806C12.3483 58.8039 11.7946 58.9918 11.3522 59.3377C10.9099 59.6836 10.6063 60.1659 10.4934 60.7025C10.3804 61.2391 10.465 61.7967 10.7327 62.2801C11.0004 62.7635 11.4347 63.1429 11.9615 63.3534C12.4882 63.564 13.0748 63.5927 13.6211 63.4347C14.1675 63.2766 14.6397 62.9416 14.9573 62.4868C15.275 62.0321 15.4183 61.4856 15.3628 60.9408C15.3073 60.396 15.0565 59.8865 14.6532 59.4992C14.4273 59.2781 14.1573 59.1028 13.8594 58.9837C13.5615 58.8646 13.2416 58.8042 12.9189 58.806Z" fill="url(#paint12_linear_676_3389)"/>
<path d="M148.812 49.7246C148.706 49.3725 148.569 49.0297 148.402 48.7002C148.317 48.5151 148.221 48.3351 148.113 48.161L148.025 48.007C147.858 47.7523 147.667 47.5125 147.455 47.2906C146.79 46.6319 145.961 46.1468 145.046 45.8811C143.88 45.5445 142.667 45.3758 141.449 45.3804H114.881L123.994 41.7679V37.2388L119.979 38.9488L114.158 41.4136L113.114 41.8527C112.105 42.3194 111.329 43.15 110.955 44.1634C110.636 45.0009 110.465 45.8833 110.449 46.7745C110.41 47.7283 110.444 48.6834 110.553 49.6322L110.633 49.7169H140.743C141.389 49.7101 142.035 49.7435 142.678 49.817C143.125 49.8584 143.555 50.0038 143.93 50.2407C144.261 50.4715 144.502 50.8025 144.613 51.1804C144.647 51.2655 144.674 51.353 144.693 51.4423C144.693 51.4423 144.693 51.4808 144.693 51.5039C144.693 52.0508 144.444 52.2202 144.259 52.2742C143.902 52.4212 143.516 52.4971 143.127 52.4975H99.2802V51.889C99.2888 50.8288 99.1839 49.7706 98.967 48.731C98.7854 47.834 98.4256 46.9789 97.9072 46.2123C97.4199 45.4938 96.7406 44.9139 95.9401 44.5331C95.0095 44.1137 93.989 43.9105 92.9613 43.94C91.9962 43.9264 91.0407 44.124 90.1671 44.5177C89.3712 44.8819 88.6672 45.4075 88.1037 46.0582C87.5493 46.6982 87.1196 47.4288 86.8351 48.2149C86.5498 48.9973 86.4032 49.82 86.4015 50.6489C86.3835 51.5511 86.5471 52.4481 86.8832 53.2909C87.1855 53.9898 87.656 54.6101 88.2562 55.101C88.8664 55.5819 89.5789 55.929 90.3438 56.1177C91.1828 56.3262 92.0464 56.4298 92.9131 56.4258H94.5189C94.4535 56.6631 94.3447 56.8873 94.1977 57.0882C93.9484 57.4003 93.6231 57.6489 93.2503 57.8122C92.7115 58.0581 92.138 58.2268 91.5482 58.3129C90.6685 58.4381 89.7797 58.4948 88.8905 58.4824H87.919V62.6109H89.1394C92.2949 62.6109 94.7036 62.1025 96.3014 61.0704C97.1037 60.5399 97.7748 59.847 98.2673 59.0404C98.7598 58.2339 99.0617 57.3334 99.1517 56.4027H145.721L148.932 52.8518V52.7902C149.011 52.4331 149.052 52.0692 149.053 51.7042C149.057 51.6606 149.057 51.6168 149.053 51.5732C149.055 50.9497 148.974 50.3283 148.812 49.7246ZM94.7357 50.9647V52.5052H92.9452C92.3992 52.5312 91.8613 52.3701 91.4277 52.0508C91.2156 51.8083 91.0577 51.5266 90.9638 51.2232C90.8699 50.9198 90.8419 50.6011 90.8817 50.2869C90.8572 49.6769 91.0221 49.0737 91.3555 48.5538C91.5179 48.3386 91.7356 48.1673 91.9874 48.0566C92.2393 47.9459 92.5167 47.8996 92.7927 47.9222C93.095 47.8875 93.4013 47.9427 93.6698 48.0805C93.9384 48.2183 94.1563 48.4319 94.2941 48.6925C94.6185 49.4081 94.7695 50.185 94.7357 50.9647Z" fill="url(#paint13_linear_676_3389)"/>
<path d="M82.4028 47.4218L79.5765 43.016L79.3597 43.1469C78.7094 43.5244 78.0992 43.9172 77.505 44.2638C76.9109 44.6104 76.3087 45.0341 75.6904 45.4115L75.4736 45.5501L78.067 49.2627L79.0145 50.603C79.2553 50.9419 79.424 51.2038 79.5444 51.3732C79.6306 51.5063 79.7007 51.6484 79.7532 51.7969C79.7783 51.8952 79.7918 51.996 79.7933 52.0973C79.7933 52.182 79.7933 52.2821 79.5605 52.3514C79.2274 52.4468 78.8801 52.4885 78.5327 52.4747H72.1978V56.3876H79.9539C80.6585 56.4012 81.3599 56.2942 82.0254 56.0718C82.5719 55.8929 83.0707 55.601 83.4867 55.2168C83.8622 54.8552 84.1501 54.4186 84.3298 53.9382C84.5207 53.4454 84.6159 52.9233 84.6108 52.3977C84.5878 51.6507 84.3961 50.9175 84.0487 50.2487C83.5556 49.2776 83.006 48.3339 82.4028 47.4218Z" fill="url(#paint14_linear_676_3389)"/>
<path d="M65.4134 54.5083C65.4168 55.126 65.3819 55.7433 65.309 56.3569C65.2672 56.7744 65.1272 57.1773 64.8995 57.5354C64.6617 57.8556 64.3201 58.0913 63.928 58.2055C63.3037 58.3752 62.6579 58.4608 62.009 58.4597H61.7601V62.5805H62.0171C63.3305 62.5895 64.6396 62.4342 65.9112 62.1184C66.8644 61.8835 67.7262 61.3885 68.3922 60.6934C69.0241 59.9625 69.4547 59.0912 69.6447 58.1593C69.892 56.9494 70.0077 55.7181 69.99 54.4852V45.3962H65.4455L65.4134 54.5083Z" fill="url(#paint15_linear_676_3389)"/>
<defs>
<linearGradient id="paint0_linear_676_3389" x1="197.293" y1="45.3822" x2="151.647" y2="48.0858" gradientUnits="userSpaceOnUse">
<stop stop-color="#468BF2"/>
<stop offset="1" stop-color="#35A3F2"/>
</linearGradient>
<linearGradient id="paint1_linear_676_3389" x1="205.271" y1="13.8749" x2="150.378" y2="16.1342" gradientUnits="userSpaceOnUse">
<stop stop-color="#468BF2"/>
<stop offset="1" stop-color="#35A3F2"/>
</linearGradient>
<linearGradient id="paint2_linear_676_3389" x1="22.7558" y1="15.8618" x2="-1.70195" y2="17.0591" gradientUnits="userSpaceOnUse">
<stop stop-color="#468BF2"/>
<stop offset="1" stop-color="#35A3F2"/>
</linearGradient>
<linearGradient id="paint3_linear_676_3389" x1="40.6136" y1="20.1557" x2="20.8936" y2="21.2073" gradientUnits="userSpaceOnUse">
<stop stop-color="#468BF2"/>
<stop offset="1" stop-color="#35A3F2"/>
</linearGradient>
<linearGradient id="paint4_linear_676_3389" x1="58.5374" y1="16.1215" x2="39.5813" y2="16.853" gradientUnits="userSpaceOnUse">
<stop stop-color="#468BF2"/>
<stop offset="1" stop-color="#35A3F2"/>
</linearGradient>
<linearGradient id="paint5_linear_676_3389" x1="77.5857" y1="20.2533" x2="58.6109" y2="21.2348" gradientUnits="userSpaceOnUse">
<stop stop-color="#468BF2"/>
<stop offset="1" stop-color="#35A3F2"/>
</linearGradient>
<linearGradient id="paint6_linear_676_3389" x1="88.9635" y1="20.1709" x2="78.1077" y2="20.4994" gradientUnits="userSpaceOnUse">
<stop stop-color="#468BF2"/>
<stop offset="1" stop-color="#35A3F2"/>
</linearGradient>
<linearGradient id="paint7_linear_676_3389" x1="112.131" y1="16.0369" x2="88.9797" y2="17.1473" gradientUnits="userSpaceOnUse">
<stop stop-color="#468BF2"/>
<stop offset="1" stop-color="#35A3F2"/>
</linearGradient>
<linearGradient id="paint8_linear_676_3389" x1="130.495" y1="20.5504" x2="112.988" y2="21.4058" gradientUnits="userSpaceOnUse">
<stop stop-color="#468BF2"/>
<stop offset="1" stop-color="#35A3F2"/>
</linearGradient>
<linearGradient id="paint9_linear_676_3389" x1="150.579" y1="16.1325" x2="131.679" y2="16.8581" gradientUnits="userSpaceOnUse">
<stop stop-color="#468BF2"/>
<stop offset="1" stop-color="#35A3F2"/>
</linearGradient>
<linearGradient id="paint10_linear_676_3389" x1="41.183" y1="38.0109" x2="28.6579" y2="39.2295" gradientUnits="userSpaceOnUse">
<stop stop-color="#468BF2"/>
<stop offset="1" stop-color="#35A3F2"/>
</linearGradient>
<linearGradient id="paint11_linear_676_3389" x1="66.7063" y1="42.2539" x2="-3.15618" y2="54.043" gradientUnits="userSpaceOnUse">
<stop stop-color="#468BF2"/>
<stop offset="1" stop-color="#35A3F2"/>
</linearGradient>
<linearGradient id="paint12_linear_676_3389" x1="15.8247" y1="59.9348" x2="10.0448" y2="60.2431" gradientUnits="userSpaceOnUse">
<stop stop-color="#468BF2"/>
<stop offset="1" stop-color="#35A3F2"/>
</linearGradient>
<linearGradient id="paint13_linear_676_3389" x1="154.777" y1="43.295" x2="82.2672" y2="52.4554" gradientUnits="userSpaceOnUse">
<stop stop-color="#468BF2"/>
<stop offset="1" stop-color="#35A3F2"/>
</linearGradient>
<linearGradient id="paint14_linear_676_3389" x1="85.7445" y1="46.208" x2="71.1825" y2="46.8995" gradientUnits="userSpaceOnUse">
<stop stop-color="#468BF2"/>
<stop offset="1" stop-color="#35A3F2"/>
</linearGradient>
<linearGradient id="paint15_linear_676_3389" x1="70.7435" y1="49.4981" x2="61.0709" y2="49.7351" gradientUnits="userSpaceOnUse">
<stop stop-color="#468BF2"/>
<stop offset="1" stop-color="#35A3F2"/>
</linearGradient>
</defs>
</svg>
