<svg width="206" height="48" viewBox="0 0 206 48" fill="none" xmlns="http://www.w3.org/2000/svg">
<path d="M137.791 47.839H137.71C135.139 47.839 132.673 46.8221 130.855 45.012C129.036 43.2019 128.015 40.7469 128.015 38.187C128.017 35.6287 129.04 33.1761 130.858 31.3679C132.676 29.5597 135.14 28.5441 137.71 28.5441H137.791C140.361 28.5441 142.825 29.5597 144.643 31.3679C146.461 33.1761 147.483 35.6287 147.486 38.187C147.486 40.7469 146.464 43.2019 144.646 45.012C142.828 46.8221 140.362 47.839 137.791 47.839Z" fill="url(#paint0_linear_676_4881)"/>
<path d="M167.621 0.0540771H137.735C132.361 0.0540771 128.004 4.39143 128.004 9.74182V9.75077C128.004 15.1012 132.361 19.4385 137.735 19.4385H167.621C172.995 19.4385 177.352 15.1012 177.352 9.75077V9.74182C177.352 4.39143 172.995 0.0540771 167.621 0.0540771Z" fill="url(#paint1_linear_676_4881)"/>
<path d="M195.843 19.626H195.789C193.218 19.626 190.752 18.6091 188.934 16.799C187.116 14.9889 186.094 12.534 186.094 9.97411C186.094 7.41426 187.116 4.95925 188.934 3.14916C190.752 1.33908 193.218 0.322174 195.789 0.322174H195.87C198.442 0.322174 200.908 1.33908 202.726 3.14916C204.544 4.95925 205.565 7.41426 205.565 9.97411C205.565 12.534 204.544 14.9889 202.726 16.799C200.908 18.6091 198.442 19.626 195.87 19.626H195.843Z" fill="url(#paint2_linear_676_4881)"/>
<path d="M205.538 38.1867C205.538 40.7584 204.512 43.2248 202.685 45.0433C200.859 46.8618 198.381 47.8834 195.798 47.8834H165.922C164.643 47.8834 163.376 47.6326 162.194 47.1453C161.013 46.658 159.939 45.9437 159.034 45.0433C158.13 44.1429 157.413 43.0739 156.923 41.8975C156.434 40.721 156.182 39.4601 156.182 38.1867C156.182 36.9133 156.434 35.6524 156.923 34.4759C157.413 33.2995 158.13 32.2305 159.034 31.3301C159.939 30.4297 161.013 29.7154 162.194 29.2281C163.376 28.7408 164.643 28.49 165.922 28.49H195.789C197.068 28.4877 198.334 28.7362 199.516 29.2214C200.699 29.7067 201.773 30.4191 202.678 31.318C203.584 32.2168 204.302 33.2846 204.793 34.4601C205.284 35.6356 205.537 36.8958 205.538 38.1688V38.1867Z" fill="url(#paint3_linear_676_4881)"/>
<path d="M102.734 1.51337L86.3745 5.05002L86.6173 8.34492L102.977 4.8799L102.734 1.51337Z" fill="url(#paint4_linear_676_4881)"/>
<path d="M105.197 16.4298V31.1763H101.96C99.897 31.1763 98.8688 29.9825 98.8748 27.5949V18.7667H92.0667V28.6872C92.1226 29.0947 92.0495 29.5094 91.8577 29.8737C91.6659 30.2379 91.3649 30.5336 90.9964 30.7196C90.1815 31.0426 89.3102 31.2009 88.4333 31.1852C87.9188 31.2294 87.4007 31.1672 86.9116 31.0023C86.4225 30.8374 85.973 30.5735 85.5913 30.2272C84.9573 29.5006 84.6345 28.5556 84.692 27.5949V18.7667H77.9918V28.6872C78.0121 29.155 77.945 29.6226 77.794 30.066C77.6605 30.388 77.4189 30.6538 77.1105 30.8181C76.7296 31.016 76.3078 31.1233 75.8783 31.1315C75.3747 31.1315 74.7452 31.1852 73.9627 31.1852H67.7482V27.8545C67.7482 24.0851 66.8488 21.1214 64.9782 18.9905C63.1075 16.8596 60.3825 15.7941 56.7311 15.803C55.5831 15.8047 54.4412 15.9705 53.3406 16.2955C52.2137 16.6282 51.1369 17.11 50.1389 17.728C49.1248 18.3519 48.194 19.101 47.3689 19.9575C46.5434 20.8117 45.8412 21.776 45.2824 22.8226V0H38.6002V31.1763H17.0157C16.5483 31.1752 16.0829 31.115 15.6307 30.9972C15.167 30.89 14.7316 30.6855 14.3537 30.3973C13.9729 30.1075 13.6651 29.7335 13.4543 29.305C13.207 28.7664 13.0899 28.1776 13.1126 27.5859V18.7577H6.26848V34.2384C6.27783 35.3426 6.21474 36.4462 6.07962 37.5422C5.99639 38.358 5.72225 39.1431 5.2792 39.8344C4.81314 40.4708 4.14933 40.9365 3.39055 41.1595C2.28943 41.4794 1.14701 41.6363 0 41.6251V48C1.9417 47.9979 3.87648 47.7695 5.76485 47.3195C7.24652 46.9698 8.61638 46.2556 9.74897 45.2423C10.8554 44.1871 11.6726 42.868 12.1233 41.4102C12.6963 39.4958 12.9812 37.5074 12.9687 35.5098C13.5058 36.1657 14.2352 36.6383 15.0552 36.8618C15.4329 36.9603 15.7656 37.0319 16.0714 37.0856H16.1793C16.3903 37.1213 16.6039 37.1393 16.8179 37.1393H73.8548C75.7861 37.1769 77.7165 37.03 79.6196 36.7006C81.0781 36.4315 82.3815 35.626 83.271 34.4443C83.9795 35.2362 84.8547 35.8629 85.8342 36.2798C87.2458 36.913 88.7833 37.2192 90.3309 37.1752C90.8885 37.1752 91.4731 37.1751 92.0847 37.1304C92.7113 37.0886 93.332 36.9836 93.9373 36.817C94.5736 36.6341 95.1795 36.3596 95.736 36.0022C96.3815 35.5998 96.9483 35.0841 97.4088 34.4801C98.0125 35.3634 98.8412 36.0711 99.8101 36.5305C101.145 37.0275 102.569 37.2439 103.992 37.1662H111.978V16.4298H105.197ZM60.9581 31.1763H45.5971C46.0553 29.9425 46.6591 28.7673 47.3959 27.6754C48.071 26.6097 48.8845 25.6373 49.8151 24.7834C50.6776 23.9762 51.6682 23.3167 52.747 22.8316C53.7278 22.3779 54.7952 22.1397 55.8767 22.1332C56.7081 22.1084 57.5354 22.2579 58.305 22.5719C58.9166 22.8396 59.4537 23.2513 59.8699 23.7717C60.2942 24.2981 60.6008 24.9086 60.7692 25.5624C60.9501 26.3099 61.0377 27.0767 61.03 27.8455L60.9581 31.1763Z" fill="url(#paint5_linear_676_4881)"/>
<defs>
<linearGradient id="paint0_linear_676_4881" x1="137.75" y1="28.5441" x2="137.75" y2="47.839" gradientUnits="userSpaceOnUse">
<stop stop-color="#56AFFF"/>
<stop offset="1" stop-color="#46D0F7"/>
</linearGradient>
<linearGradient id="paint1_linear_676_4881" x1="152.678" y1="0.0540771" x2="152.678" y2="19.4385" gradientUnits="userSpaceOnUse">
<stop stop-color="#56AFFF"/>
<stop offset="1" stop-color="#46D0F7"/>
</linearGradient>
<linearGradient id="paint2_linear_676_4881" x1="195.83" y1="0.322174" x2="195.83" y2="19.626" gradientUnits="userSpaceOnUse">
<stop stop-color="#56AFFF"/>
<stop offset="1" stop-color="#46D0F7"/>
</linearGradient>
<linearGradient id="paint3_linear_676_4881" x1="180.86" y1="28.49" x2="180.86" y2="47.8834" gradientUnits="userSpaceOnUse">
<stop stop-color="#56AFFF"/>
<stop offset="1" stop-color="#46D0F7"/>
</linearGradient>
<linearGradient id="paint4_linear_676_4881" x1="94.6755" y1="1.51337" x2="94.6755" y2="8.34492" gradientUnits="userSpaceOnUse">
<stop stop-color="#56AFFF"/>
<stop offset="1" stop-color="#46D0F7"/>
</linearGradient>
<linearGradient id="paint5_linear_676_4881" x1="55.9892" y1="0" x2="55.9892" y2="48" gradientUnits="userSpaceOnUse">
<stop stop-color="#56AFFF"/>
<stop offset="1" stop-color="#46D0F7"/>
</linearGradient>
</defs>
</svg>
