<svg xmlns="http://www.w3.org/2000/svg" xmlns:xlink="http://www.w3.org/1999/xlink" width="1920" height="237.315" viewBox="0 0 1920 237.315">
  <defs>
    <clipPath id="clip-path">
      <path id="Subtraction_5" data-name="Subtraction 5" d="M0,227.315V14.057C34.754,24.531,69.349,34.386,102.825,43.349c32.832,8.79,65.557,16.981,97.266,24.346,31.055,7.213,62.061,13.848,92.157,19.721,29.418,5.741,58.856,10.928,87.5,15.417,27.93,4.377,55.951,8.224,83.284,11.433,26.59,3.122,53.345,5.736,79.521,7.77,25.379,1.972,51.019,3.462,76.206,4.427,24.314.932,48.99,1.4,73.34,1.4h.02c22.943,0,46.338-.42,69.534-1.247,22.179-.791,44.941-1.983,67.653-3.542,42.061-2.888,85.01-7.061,131.3-12.759,86.326-10.627,169.916-24.777,258.415-39.759,100.458-17.006,204.337-34.591,318.9-47.971,29.6-3.457,59.21-6.541,88-9.166,30.886-2.815,62.037-5.212,92.589-7.124,32.416-2.028,65.325-3.585,97.814-4.626C1850.5.577,1885.38.015,1920,0V227.114c-2.517-1-12.137-4.651-30.324-9.678-12.536-3.464-26.628-6.893-41.885-10.191-19.076-4.124-40.031-8.053-62.285-11.679-56.646-9.232-121.986-16.588-194.207-21.865-42.894-3.133-88.7-5.557-136.144-7.2-52.218-1.813-107.727-2.733-164.985-2.733-109.557,0-245.581,3.343-404.293,9.937-127,5.275-268.7,12.63-421.164,21.86-135.645,8.21-254.93,16.419-331.113,21.859C55.085,223.027,5.407,226.892,0,227.315Z" transform="translate(2 536.78)" fill="#122a47"/>
    </clipPath>
  </defs>
  <g id="Group_11452" data-name="Group 11452" transform="translate(-2 -526.78)">
    <path id="Subtraction_2" data-name="Subtraction 2" d="M0,227.315H0V4.057C34.744,14.528,69.339,24.383,102.825,33.349c32.832,8.79,65.557,16.981,97.266,24.346,31.053,7.212,62.059,13.848,92.157,19.721,29.418,5.741,58.856,10.928,87.5,15.417,27.926,4.377,55.947,8.223,83.284,11.433,26.585,3.121,53.339,5.735,79.521,7.77,25.385,1.973,51.025,3.462,76.206,4.427,24.32.932,49,1.4,73.34,1.4h.02c22.937,0,46.331-.42,69.534-1.247,22.182-.791,44.943-1.983,67.653-3.542,42.06-2.887,85.008-7.061,131.3-12.759,86.311-10.625,169.9-24.775,258.4-39.756l.014,0c100.458-17.006,204.337-34.591,318.9-47.971,29.612-3.459,59.22-6.542,88-9.166C1656.8.608,1687.949-1.789,1718.51-3.7c32.413-2.028,65.322-3.585,97.814-4.626C1850.508-9.423,1885.39-9.985,1920-10V227.114c-2.518-1-12.143-4.653-30.324-9.678-12.542-3.465-26.634-6.894-41.885-10.191-19.074-4.124-40.03-8.053-62.285-11.679-56.646-9.232-121.987-16.588-194.207-21.865-42.888-3.133-88.694-5.557-136.144-7.2-52.215-1.814-107.724-2.733-164.985-2.733-109.551,0-245.575,3.343-404.293,9.937-127.009,5.276-268.709,12.631-421.164,21.86-135.645,8.21-254.93,16.419-331.113,21.859C54.748,223.051,5.372,226.9,0,227.315Z" transform="translate(2 536.78)" fill="#122a47"/>
    <g id="Mask_Group_4" data-name="Mask Group 4" transform="translate(0 -10)" clip-path="url(#clip-path)">
      <g id="Group_11450" data-name="Group 11450" transform="translate(0 3.585)">
        <path id="Subtraction_4" data-name="Subtraction 4" d="M494.662,156.4c-17.126,0-34.543-.4-51.771-1.182-16.451-.748-33.295-1.875-50.059-3.349-31-2.726-62.482-6.659-96.235-12.026-28.227-4.488-58.7-10.1-93.163-17.167-30.91-6.336-62.276-13.26-92.61-19.956l-.38-.084c-5.529-1.22-11.247-2.482-16.888-3.724C59.136,91.333,30.056,85.051,0,79.031,70.225,66.889,125.13,57.936,178.032,50c67.12-10.074,129.433-18.226,190.5-24.922A3965.7,3965.7,0,0,1,805.145,1.083C805.175.365,807.709,0,812.672,0c8.4,0,21.191,1.072,21.318,1.083v107.3c-31.843,8.549-63.462,16.033-93.982,22.245-29.445,5.993-58.814,11-87.294,14.867-27.323,3.715-54.741,6.513-81.487,8.315C545.738,155.528,519.978,156.4,494.662,156.4Z" transform="translate(1098.791 530.355)" fill="#21344b"/>
        <g id="Subtraction_3" data-name="Subtraction 3" transform="translate(1098.791 499.962)" fill="none" stroke-linecap="round" stroke-linejoin="round">
          <path d="M494.662,156.4c-17.126,0-34.543-.4-51.771-1.182-16.451-.748-33.295-1.875-50.059-3.349-31-2.726-62.482-6.659-96.235-12.026-28.227-4.488-58.7-10.1-93.163-17.167-30.91-6.336-62.276-13.26-92.61-19.956l-.38-.084c-5.529-1.22-11.247-2.482-16.888-3.724C59.136,91.333,30.056,85.051,0,79.031,70.225,66.889,125.13,57.936,178.032,50c67.12-10.074,129.433-18.226,190.5-24.922A3965.7,3965.7,0,0,1,805.145,1.083C805.175.365,807.709,0,812.672,0c8.4,0,21.191,1.072,21.318,1.083v107.3c-31.843,8.549-63.462,16.033-93.982,22.245-29.445,5.993-58.814,11-87.294,14.867-27.323,3.715-54.741,6.513-81.487,8.315C545.738,155.528,519.978,156.4,494.662,156.4Z" stroke="none"/>
          <path d="M 494.662353515625 156.3988494873047 L 494.662353515625 155.3988494873047 C 519.9574584960938 155.3985137939453 545.6952514648438 154.5282897949219 571.1605834960938 152.8121795654297 C 597.8861083984375 151.0113983154297 625.2794799804688 148.2162933349609 652.5796508789062 144.5042877197266 C 681.0300903320312 140.636962890625 710.3782348632812 135.6387329101562 739.8087768554688 129.6482849121094 C 770.0728149414062 123.4881896972656 801.418701171875 116.0764694213867 832.990234375 107.6156311035156 L 832.990234375 2.005322456359863 C 829.9129028320312 1.761441707611084 819.7327880859375 0.9999573826789856 812.6722412109375 0.9999573826789856 C 810.6571044921875 0.9999573826789856 809.0364379882812 1.061401844024658 807.85546875 1.182512998580933 C 806.7225341796875 1.298753142356873 806.2318115234375 1.448069334030151 806.0428466796875 1.524671316146851 C 805.87939453125 1.856416463851929 805.5379638671875 2.083179712295532 805.1453247070312 2.083179712295532 C 658.6112060546875 2.083179712295532 515.82958984375 9.928956985473633 368.6414489746094 26.06884574890137 C 307.586669921875 32.76351165771484 245.2864532470703 40.91384506225586 178.1806793212891 50.98540115356445 C 126.5851440429688 58.7287712097168 73.11994171142578 67.43112945556641 5.442360401153564 79.10570526123047 C 33.65043258666992 84.80540466308594 61.34044647216797 90.79410552978516 93.77267456054688 97.93562316894531 C 99.56755828857422 99.21140289306641 105.4612274169922 100.5120697021484 110.6613388061523 101.6596221923828 L 111.0697860717773 101.7498474121094 C 141.3904571533203 108.442626953125 172.7432250976562 115.3631820678711 203.6356658935547 121.6958465576172 C 238.0888977050781 128.7578430175781 268.5484619140625 134.3706207275391 296.7548828125 138.8550720214844 C 330.4873352050781 144.2177276611328 361.9435729980469 148.1486206054688 392.9207763671875 150.8720703125 C 409.6740112304688 152.3448486328125 426.5018920898438 153.4707336425781 442.9371032714844 154.2182922363281 C 460.1480102539062 155.0016174316406 477.5509033203125 155.3988494873047 494.662353515625 155.3988494873047 L 494.662353515625 156.3988494873047 M 494.662353515625 156.3988494873047 C 477.5361022949219 156.3988494873047 460.1195678710938 156.0014038085938 442.8916625976562 155.21728515625 C 426.4404602050781 154.4689636230469 409.5971069335938 153.3419647216797 392.8332214355469 151.8681793212891 C 361.8319091796875 149.1426239013672 330.3514404296875 145.208740234375 296.597900390625 139.8426208496094 C 268.3710021972656 135.3549499511719 237.8982238769531 129.7395172119141 203.4348907470703 122.6755142211914 C 172.5252227783203 116.3392944335938 141.1591186523438 109.4156265258789 110.8252258300781 102.7199554443359 L 110.4455642700195 102.6360702514648 C 104.9163360595703 101.4158477783203 99.19844818115234 100.1540679931641 93.55767059326172 98.91217803955078 C 59.13645172119141 91.33273315429688 30.05589485168457 85.05129241943359 6.07638867222704e-06 79.03084564208984 C 70.22467041015625 66.889404296875 125.1297836303711 57.93595886230469 178.0322265625 49.99651336669922 C 245.1522216796875 39.92273330688477 307.4652404785156 31.77084541320801 368.5324401855469 25.0748462677002 C 515.7567749023438 8.930957794189453 658.5736694335938 1.083179593086243 805.1453247070312 1.083179593086243 C 805.1752319335938 0.3651796281337738 807.708984375 -4.258897388353944e-05 812.6722412109375 -4.258897388353944e-05 C 821.0679931640625 -4.258897388353944e-05 833.8636474609375 1.072179675102234 833.990234375 1.083179593086243 L 833.990234375 108.3827362060547 C 802.1474609375 116.9318466186523 770.5280151367188 124.4160690307617 740.0082397460938 130.628173828125 C 710.5628051757812 136.6216278076172 681.1943359375 141.6238403320312 652.71435546875 145.4951782226562 C 625.390869140625 149.2102966308594 597.9730224609375 152.0078430175781 571.227783203125 153.8099517822266 C 545.7380981445312 155.5276184082031 519.9780883789062 156.3985137939453 494.662353515625 156.3988494873047 Z" stroke="none" fill="#00adbb"/>
        </g>
      </g>
    </g>
  </g>
</svg>
