<svg xmlns="http://www.w3.org/2000/svg" width="1916.226" height="972.811" viewBox="0 0 1916.226 972.811">
  <g id="circles" transform="translate(0.285 0.598)" opacity="0.166" style="mix-blend-mode: hard-light;isolation: isolate">
    <circle id="Ellipse_456" data-name="Ellipse 456" cx="8.892" cy="8.892" r="8.892" transform="translate(1890.395)" fill="#00adbb" opacity="0.429"/>
    <circle id="Ellipse_455" data-name="Ellipse 455" cx="9.347" cy="9.347" r="9.347" transform="translate(1834.423 609.78)" fill="#00adbb" opacity="0.845"/>
    <circle id="Ellipse_454" data-name="Ellipse 454" cx="3.319" cy="3.319" r="3.319" transform="translate(1909.14 329.971)" fill="#00adbb" opacity="0.847"/>
    <circle id="Ellipse_453" data-name="Ellipse 453" cx="2.32" cy="2.32" r="2.32" transform="translate(1872.03 496.055)" fill="#00adbb" opacity="0.232"/>
    <circle id="Ellipse_452" data-name="Ellipse 452" cx="8.96" cy="8.96" r="8.96" transform="translate(1683.736 733.255)" fill="#00adbb" opacity="0.692"/>
    <circle id="Ellipse_451" data-name="Ellipse 451" cx="9.883" cy="9.883" r="9.883" transform="translate(1669.186 714.533)" fill="#00adbb" opacity="0.3"/>
    <circle id="Ellipse_450" data-name="Ellipse 450" cx="13.933" cy="13.933" r="13.933" transform="translate(1703.705 402.093)" fill="#00adbb" opacity="0.401"/>
    <circle id="Ellipse_449" data-name="Ellipse 449" cx="4.21" cy="4.21" r="4.21" transform="translate(1771.179 750.099)" fill="#00adbb" opacity="0.173"/>
    <circle id="Ellipse_448" data-name="Ellipse 448" cx="9.811" cy="9.811" r="9.811" transform="translate(1386.636)" fill="#00adbb" opacity="0.945"/>
    <circle id="Ellipse_447" data-name="Ellipse 447" cx="10.112" cy="10.112" r="10.112" transform="translate(1458.874 671.588)" fill="#00adbb" opacity="0.268"/>
    <circle id="Ellipse_446" data-name="Ellipse 446" cx="3.909" cy="3.909" r="3.909" transform="translate(1622.796 380.225)" fill="#00adbb" opacity="0.574"/>
    <circle id="Ellipse_445" data-name="Ellipse 445" cx="2.511" cy="2.511" r="2.511" transform="translate(1496.989 210.328)" fill="#00adbb" opacity="0.797"/>
    <circle id="Ellipse_444" data-name="Ellipse 444" cx="8.583" cy="8.583" r="8.583" transform="translate(1327.296 800.702)" fill="#00adbb" opacity="0.691"/>
    <circle id="Ellipse_443" data-name="Ellipse 443" cx="8.657" cy="8.657" r="8.657" transform="translate(1289.615 654.508)" fill="#00adbb" opacity="0.727"/>
    <circle id="Ellipse_442" data-name="Ellipse 442" cx="3.626" cy="3.626" r="3.626" transform="translate(1201.616 458.028)" fill="#00adbb" opacity="0.804"/>
    <circle id="Ellipse_441" data-name="Ellipse 441" cx="9.488" cy="9.488" r="9.488" transform="translate(1317.296 219.954)" fill="#00adbb" opacity="0.311"/>
    <circle id="Ellipse_440" data-name="Ellipse 440" cx="13.651" cy="13.651" r="13.651" transform="translate(1084.958 261.021)" fill="#00adbb" opacity="0.984"/>
    <circle id="Ellipse_439" data-name="Ellipse 439" cx="13.721" cy="13.721" r="13.721" transform="translate(604.306 182.134)" fill="#00adbb" opacity="0.327"/>
    <circle id="Ellipse_438" data-name="Ellipse 438" cx="6.168" cy="6.168" r="6.168" transform="translate(1128.726 376.336)" fill="#00adbb" opacity="0.311"/>
    <circle id="Ellipse_437" data-name="Ellipse 437" cx="13.931" cy="13.931" r="13.931" transform="translate(1421.767 355.737)" fill="#00adbb" opacity="0.441"/>
    <circle id="Ellipse_436" data-name="Ellipse 436" cx="1.645" cy="1.645" r="1.645" transform="translate(864.415 968.806)" fill="#00adbb" opacity="0.591"/>
    <circle id="Ellipse_435" data-name="Ellipse 435" cx="8.338" cy="8.338" r="8.338" transform="translate(572.304 629.045)" fill="#00adbb" opacity="0.648"/>
    <circle id="Ellipse_434" data-name="Ellipse 434" cx="3.958" cy="3.958" r="3.958" transform="translate(941.7 280.865)" fill="#00adbb" opacity="0.841"/>
    <circle id="Ellipse_433" data-name="Ellipse 433" cx="9.914" cy="9.914" r="9.914" transform="translate(905.411)" fill="#00adbb" opacity="0.593"/>
    <circle id="Ellipse_432" data-name="Ellipse 432" cx="8.903" cy="8.903" r="8.903" transform="translate(554.075)" fill="#00adbb" opacity="0.309"/>
    <circle id="Ellipse_431" data-name="Ellipse 431" cx="12.208" cy="12.208" r="12.208" transform="translate(452.995 800.702)" fill="#00adbb" opacity="0.645"/>
    <circle id="Ellipse_430" data-name="Ellipse 430" cx="2.495" cy="2.495" r="2.495" transform="translate(629.678 432.07)" fill="#00adbb" opacity="0.369"/>
    <circle id="Ellipse_429" data-name="Ellipse 429" cx="11.748" cy="11.748" r="11.748" transform="translate(756.704 946.954)" fill="#00adbb" opacity="0.971"/>
    <circle id="Ellipse_428" data-name="Ellipse 428" cx="5.456" cy="5.456" r="5.456" transform="translate(324.337 82.607)" fill="#00adbb" opacity="0.6"/>
    <circle id="Ellipse_427" data-name="Ellipse 427" cx="10.868" cy="10.868" r="10.868" transform="translate(362.351 490.582)" fill="#00adbb" opacity="0.21"/>
    <circle id="Ellipse_426" data-name="Ellipse 426" cx="13.356" cy="13.356" r="13.356" transform="translate(491.534 463.452)" fill="#00adbb" opacity="0.763"/>
    <circle id="Ellipse_425" data-name="Ellipse 425" cx="2.615" cy="2.615" r="2.615" transform="translate(380.805 966.865)" fill="#00adbb" opacity="0.37"/>
    <circle id="Ellipse_424" data-name="Ellipse 424" cx="6.49" cy="6.49" r="6.49" transform="translate(207.211 726.967)" fill="#00adbb" opacity="0.37"/>
    <circle id="Ellipse_423" data-name="Ellipse 423" cx="12.852" cy="12.852" r="12.852" transform="translate(210.144 492.676)" fill="#00adbb" opacity="0.887"/>
    <circle id="Ellipse_422" data-name="Ellipse 422" cx="6.507" cy="6.507" r="6.507" transform="translate(222.244 385.375)" fill="#00adbb" opacity="0.177"/>
    <circle id="Ellipse_421" data-name="Ellipse 421" cx="9.13" cy="9.13" r="9.13" transform="translate(137.886 182.32)" fill="#00adbb" opacity="0.879"/>
    <circle id="Ellipse_420" data-name="Ellipse 420" cx="9.271" cy="9.271" r="9.271" transform="translate(21.616 869.417)" fill="#00adbb" opacity="0.252"/>
    <circle id="Ellipse_419" data-name="Ellipse 419" cx="6.629" cy="6.629" r="6.629" transform="translate(25.548 505.398)" fill="#00adbb" opacity="0.675"/>
    <circle id="Ellipse_418" data-name="Ellipse 418" cx="5.151" cy="5.151" r="5.151" transform="translate(0 433.558)" fill="#00adbb" opacity="0.616"/>
    <circle id="Ellipse_417" data-name="Ellipse 417" cx="3.43" cy="3.43" r="3.43" transform="translate(82.38 855.235)" fill="#00adbb" opacity="0.835"/>
  </g>
</svg>
