<svg xmlns="http://www.w3.org/2000/svg" xmlns:xlink="http://www.w3.org/1999/xlink" width="312" height="312" viewBox="0 0 312 312">
  <defs>
    <clipPath id="clip-path">
      <circle id="Ellipse_409" data-name="Ellipse 409" cx="156" cy="156" r="156" transform="translate(233.094 1400.094)" fill="#122a47" stroke="#707070" stroke-width="1"/>
    </clipPath>
    <clipPath id="clip-path-2">
      <rect width="348" height="348" fill="none"/>
    </clipPath>
  </defs>
  <g id="Mask_Group_3" data-name="Mask Group 3" transform="translate(-233.094 -1400.094)" clip-path="url(#clip-path)">
    <g id="Repeat_Grid_29" data-name="Repeat Grid 29" transform="translate(215.094 1382.094)" clip-path="url(#clip-path-2)">
      <g transform="translate(-292 -1536)">
        <circle id="Ellipse_288" data-name="Ellipse 288" cx="2" cy="2" r="2" transform="translate(297 1541)" fill="#122a47"/>
      </g>
      <g transform="translate(-258 -1536)">
        <circle id="Ellipse_289" data-name="Ellipse 289" cx="2" cy="2" r="2" transform="translate(297 1541)" fill="#122a47"/>
      </g>
      <g transform="translate(-224 -1536)">
        <circle id="Ellipse_290" data-name="Ellipse 290" cx="2" cy="2" r="2" transform="translate(297 1541)" fill="#122a47"/>
      </g>
      <g transform="translate(-190 -1536)">
        <circle id="Ellipse_291" data-name="Ellipse 291" cx="2" cy="2" r="2" transform="translate(297 1541)" fill="#122a47"/>
      </g>
      <g transform="translate(-156 -1536)">
        <circle id="Ellipse_292" data-name="Ellipse 292" cx="2" cy="2" r="2" transform="translate(297 1541)" fill="#122a47"/>
      </g>
      <g transform="translate(-122 -1536)">
        <circle id="Ellipse_293" data-name="Ellipse 293" cx="2" cy="2" r="2" transform="translate(297 1541)" fill="#122a47"/>
      </g>
      <g transform="translate(-88 -1536)">
        <circle id="Ellipse_294" data-name="Ellipse 294" cx="2" cy="2" r="2" transform="translate(297 1541)" fill="#122a47"/>
      </g>
      <g transform="translate(-54 -1536)">
        <circle id="Ellipse_295" data-name="Ellipse 295" cx="2" cy="2" r="2" transform="translate(297 1541)" fill="#122a47"/>
      </g>
      <g transform="translate(-20 -1536)">
        <circle id="Ellipse_296" data-name="Ellipse 296" cx="2" cy="2" r="2" transform="translate(297 1541)" fill="#122a47"/>
      </g>
      <g transform="translate(14 -1536)">
        <circle id="Ellipse_297" data-name="Ellipse 297" cx="2" cy="2" r="2" transform="translate(297 1541)" fill="#122a47"/>
      </g>
      <g transform="translate(48 -1536)">
        <circle id="Ellipse_298" data-name="Ellipse 298" cx="2" cy="2" r="2" transform="translate(297 1541)" fill="#122a47"/>
      </g>
      <g transform="translate(-292 -1502)">
        <circle id="Ellipse_299" data-name="Ellipse 299" cx="2" cy="2" r="2" transform="translate(297 1541)" fill="#122a47"/>
      </g>
      <g transform="translate(-258 -1502)">
        <circle id="Ellipse_300" data-name="Ellipse 300" cx="2" cy="2" r="2" transform="translate(297 1541)" fill="#122a47"/>
      </g>
      <g transform="translate(-224 -1502)">
        <circle id="Ellipse_301" data-name="Ellipse 301" cx="2" cy="2" r="2" transform="translate(297 1541)" fill="#122a47"/>
      </g>
      <g transform="translate(-190 -1502)">
        <circle id="Ellipse_302" data-name="Ellipse 302" cx="2" cy="2" r="2" transform="translate(297 1541)" fill="#122a47"/>
      </g>
      <g transform="translate(-156 -1502)">
        <circle id="Ellipse_303" data-name="Ellipse 303" cx="2" cy="2" r="2" transform="translate(297 1541)" fill="#122a47"/>
      </g>
      <g transform="translate(-122 -1502)">
        <circle id="Ellipse_304" data-name="Ellipse 304" cx="2" cy="2" r="2" transform="translate(297 1541)" fill="#122a47"/>
      </g>
      <g transform="translate(-88 -1502)">
        <circle id="Ellipse_305" data-name="Ellipse 305" cx="2" cy="2" r="2" transform="translate(297 1541)" fill="#122a47"/>
      </g>
      <g transform="translate(-54 -1502)">
        <circle id="Ellipse_306" data-name="Ellipse 306" cx="2" cy="2" r="2" transform="translate(297 1541)" fill="#122a47"/>
      </g>
      <g transform="translate(-20 -1502)">
        <circle id="Ellipse_307" data-name="Ellipse 307" cx="2" cy="2" r="2" transform="translate(297 1541)" fill="#122a47"/>
      </g>
      <g transform="translate(14 -1502)">
        <circle id="Ellipse_308" data-name="Ellipse 308" cx="2" cy="2" r="2" transform="translate(297 1541)" fill="#122a47"/>
      </g>
      <g transform="translate(48 -1502)">
        <circle id="Ellipse_309" data-name="Ellipse 309" cx="2" cy="2" r="2" transform="translate(297 1541)" fill="#122a47"/>
      </g>
      <g transform="translate(-292 -1468)">
        <circle id="Ellipse_310" data-name="Ellipse 310" cx="2" cy="2" r="2" transform="translate(297 1541)" fill="#122a47"/>
      </g>
      <g transform="translate(-258 -1468)">
        <circle id="Ellipse_311" data-name="Ellipse 311" cx="2" cy="2" r="2" transform="translate(297 1541)" fill="#122a47"/>
      </g>
      <g transform="translate(-224 -1468)">
        <circle id="Ellipse_312" data-name="Ellipse 312" cx="2" cy="2" r="2" transform="translate(297 1541)" fill="#122a47"/>
      </g>
      <g transform="translate(-190 -1468)">
        <circle id="Ellipse_313" data-name="Ellipse 313" cx="2" cy="2" r="2" transform="translate(297 1541)" fill="#122a47"/>
      </g>
      <g transform="translate(-156 -1468)">
        <circle id="Ellipse_314" data-name="Ellipse 314" cx="2" cy="2" r="2" transform="translate(297 1541)" fill="#122a47"/>
      </g>
      <g transform="translate(-122 -1468)">
        <circle id="Ellipse_315" data-name="Ellipse 315" cx="2" cy="2" r="2" transform="translate(297 1541)" fill="#122a47"/>
      </g>
      <g transform="translate(-88 -1468)">
        <circle id="Ellipse_316" data-name="Ellipse 316" cx="2" cy="2" r="2" transform="translate(297 1541)" fill="#122a47"/>
      </g>
      <g transform="translate(-54 -1468)">
        <circle id="Ellipse_317" data-name="Ellipse 317" cx="2" cy="2" r="2" transform="translate(297 1541)" fill="#122a47"/>
      </g>
      <g transform="translate(-20 -1468)">
        <circle id="Ellipse_318" data-name="Ellipse 318" cx="2" cy="2" r="2" transform="translate(297 1541)" fill="#122a47"/>
      </g>
      <g transform="translate(14 -1468)">
        <circle id="Ellipse_319" data-name="Ellipse 319" cx="2" cy="2" r="2" transform="translate(297 1541)" fill="#122a47"/>
      </g>
      <g transform="translate(48 -1468)">
        <circle id="Ellipse_320" data-name="Ellipse 320" cx="2" cy="2" r="2" transform="translate(297 1541)" fill="#122a47"/>
      </g>
      <g transform="translate(-292 -1434)">
        <circle id="Ellipse_321" data-name="Ellipse 321" cx="2" cy="2" r="2" transform="translate(297 1541)" fill="#122a47"/>
      </g>
      <g transform="translate(-258 -1434)">
        <circle id="Ellipse_322" data-name="Ellipse 322" cx="2" cy="2" r="2" transform="translate(297 1541)" fill="#122a47"/>
      </g>
      <g transform="translate(-224 -1434)">
        <circle id="Ellipse_323" data-name="Ellipse 323" cx="2" cy="2" r="2" transform="translate(297 1541)" fill="#122a47"/>
      </g>
      <g transform="translate(-190 -1434)">
        <circle id="Ellipse_324" data-name="Ellipse 324" cx="2" cy="2" r="2" transform="translate(297 1541)" fill="#122a47"/>
      </g>
      <g transform="translate(-156 -1434)">
        <circle id="Ellipse_325" data-name="Ellipse 325" cx="2" cy="2" r="2" transform="translate(297 1541)" fill="#122a47"/>
      </g>
      <g transform="translate(-122 -1434)">
        <circle id="Ellipse_326" data-name="Ellipse 326" cx="2" cy="2" r="2" transform="translate(297 1541)" fill="#122a47"/>
      </g>
      <g transform="translate(-88 -1434)">
        <circle id="Ellipse_327" data-name="Ellipse 327" cx="2" cy="2" r="2" transform="translate(297 1541)" fill="#122a47"/>
      </g>
      <g transform="translate(-54 -1434)">
        <circle id="Ellipse_328" data-name="Ellipse 328" cx="2" cy="2" r="2" transform="translate(297 1541)" fill="#122a47"/>
      </g>
      <g transform="translate(-20 -1434)">
        <circle id="Ellipse_329" data-name="Ellipse 329" cx="2" cy="2" r="2" transform="translate(297 1541)" fill="#122a47"/>
      </g>
      <g transform="translate(14 -1434)">
        <circle id="Ellipse_330" data-name="Ellipse 330" cx="2" cy="2" r="2" transform="translate(297 1541)" fill="#122a47"/>
      </g>
      <g transform="translate(48 -1434)">
        <circle id="Ellipse_331" data-name="Ellipse 331" cx="2" cy="2" r="2" transform="translate(297 1541)" fill="#122a47"/>
      </g>
      <g transform="translate(-292 -1400)">
        <circle id="Ellipse_332" data-name="Ellipse 332" cx="2" cy="2" r="2" transform="translate(297 1541)" fill="#122a47"/>
      </g>
      <g transform="translate(-258 -1400)">
        <circle id="Ellipse_333" data-name="Ellipse 333" cx="2" cy="2" r="2" transform="translate(297 1541)" fill="#122a47"/>
      </g>
      <g transform="translate(-224 -1400)">
        <circle id="Ellipse_334" data-name="Ellipse 334" cx="2" cy="2" r="2" transform="translate(297 1541)" fill="#122a47"/>
      </g>
      <g transform="translate(-190 -1400)">
        <circle id="Ellipse_335" data-name="Ellipse 335" cx="2" cy="2" r="2" transform="translate(297 1541)" fill="#122a47"/>
      </g>
      <g transform="translate(-156 -1400)">
        <circle id="Ellipse_336" data-name="Ellipse 336" cx="2" cy="2" r="2" transform="translate(297 1541)" fill="#122a47"/>
      </g>
      <g transform="translate(-122 -1400)">
        <circle id="Ellipse_337" data-name="Ellipse 337" cx="2" cy="2" r="2" transform="translate(297 1541)" fill="#122a47"/>
      </g>
      <g transform="translate(-88 -1400)">
        <circle id="Ellipse_338" data-name="Ellipse 338" cx="2" cy="2" r="2" transform="translate(297 1541)" fill="#122a47"/>
      </g>
      <g transform="translate(-54 -1400)">
        <circle id="Ellipse_339" data-name="Ellipse 339" cx="2" cy="2" r="2" transform="translate(297 1541)" fill="#122a47"/>
      </g>
      <g transform="translate(-20 -1400)">
        <circle id="Ellipse_340" data-name="Ellipse 340" cx="2" cy="2" r="2" transform="translate(297 1541)" fill="#122a47"/>
      </g>
      <g transform="translate(14 -1400)">
        <circle id="Ellipse_341" data-name="Ellipse 341" cx="2" cy="2" r="2" transform="translate(297 1541)" fill="#122a47"/>
      </g>
      <g transform="translate(48 -1400)">
        <circle id="Ellipse_342" data-name="Ellipse 342" cx="2" cy="2" r="2" transform="translate(297 1541)" fill="#122a47"/>
      </g>
      <g transform="translate(-292 -1366)">
        <circle id="Ellipse_343" data-name="Ellipse 343" cx="2" cy="2" r="2" transform="translate(297 1541)" fill="#122a47"/>
      </g>
      <g transform="translate(-258 -1366)">
        <circle id="Ellipse_344" data-name="Ellipse 344" cx="2" cy="2" r="2" transform="translate(297 1541)" fill="#122a47"/>
      </g>
      <g transform="translate(-224 -1366)">
        <circle id="Ellipse_345" data-name="Ellipse 345" cx="2" cy="2" r="2" transform="translate(297 1541)" fill="#122a47"/>
      </g>
      <g transform="translate(-190 -1366)">
        <circle id="Ellipse_346" data-name="Ellipse 346" cx="2" cy="2" r="2" transform="translate(297 1541)" fill="#122a47"/>
      </g>
      <g transform="translate(-156 -1366)">
        <circle id="Ellipse_347" data-name="Ellipse 347" cx="2" cy="2" r="2" transform="translate(297 1541)" fill="#122a47"/>
      </g>
      <g transform="translate(-122 -1366)">
        <circle id="Ellipse_348" data-name="Ellipse 348" cx="2" cy="2" r="2" transform="translate(297 1541)" fill="#122a47"/>
      </g>
      <g transform="translate(-88 -1366)">
        <circle id="Ellipse_349" data-name="Ellipse 349" cx="2" cy="2" r="2" transform="translate(297 1541)" fill="#122a47"/>
      </g>
      <g transform="translate(-54 -1366)">
        <circle id="Ellipse_350" data-name="Ellipse 350" cx="2" cy="2" r="2" transform="translate(297 1541)" fill="#122a47"/>
      </g>
      <g transform="translate(-20 -1366)">
        <circle id="Ellipse_351" data-name="Ellipse 351" cx="2" cy="2" r="2" transform="translate(297 1541)" fill="#122a47"/>
      </g>
      <g transform="translate(14 -1366)">
        <circle id="Ellipse_352" data-name="Ellipse 352" cx="2" cy="2" r="2" transform="translate(297 1541)" fill="#122a47"/>
      </g>
      <g transform="translate(48 -1366)">
        <circle id="Ellipse_353" data-name="Ellipse 353" cx="2" cy="2" r="2" transform="translate(297 1541)" fill="#122a47"/>
      </g>
      <g transform="translate(-292 -1332)">
        <circle id="Ellipse_354" data-name="Ellipse 354" cx="2" cy="2" r="2" transform="translate(297 1541)" fill="#122a47"/>
      </g>
      <g transform="translate(-258 -1332)">
        <circle id="Ellipse_355" data-name="Ellipse 355" cx="2" cy="2" r="2" transform="translate(297 1541)" fill="#122a47"/>
      </g>
      <g transform="translate(-224 -1332)">
        <circle id="Ellipse_356" data-name="Ellipse 356" cx="2" cy="2" r="2" transform="translate(297 1541)" fill="#122a47"/>
      </g>
      <g transform="translate(-190 -1332)">
        <circle id="Ellipse_357" data-name="Ellipse 357" cx="2" cy="2" r="2" transform="translate(297 1541)" fill="#122a47"/>
      </g>
      <g transform="translate(-156 -1332)">
        <circle id="Ellipse_358" data-name="Ellipse 358" cx="2" cy="2" r="2" transform="translate(297 1541)" fill="#122a47"/>
      </g>
      <g transform="translate(-122 -1332)">
        <circle id="Ellipse_359" data-name="Ellipse 359" cx="2" cy="2" r="2" transform="translate(297 1541)" fill="#122a47"/>
      </g>
      <g transform="translate(-88 -1332)">
        <circle id="Ellipse_360" data-name="Ellipse 360" cx="2" cy="2" r="2" transform="translate(297 1541)" fill="#122a47"/>
      </g>
      <g transform="translate(-54 -1332)">
        <circle id="Ellipse_361" data-name="Ellipse 361" cx="2" cy="2" r="2" transform="translate(297 1541)" fill="#122a47"/>
      </g>
      <g transform="translate(-20 -1332)">
        <circle id="Ellipse_362" data-name="Ellipse 362" cx="2" cy="2" r="2" transform="translate(297 1541)" fill="#122a47"/>
      </g>
      <g transform="translate(14 -1332)">
        <circle id="Ellipse_363" data-name="Ellipse 363" cx="2" cy="2" r="2" transform="translate(297 1541)" fill="#122a47"/>
      </g>
      <g transform="translate(48 -1332)">
        <circle id="Ellipse_364" data-name="Ellipse 364" cx="2" cy="2" r="2" transform="translate(297 1541)" fill="#122a47"/>
      </g>
      <g transform="translate(-292 -1298)">
        <circle id="Ellipse_365" data-name="Ellipse 365" cx="2" cy="2" r="2" transform="translate(297 1541)" fill="#122a47"/>
      </g>
      <g transform="translate(-258 -1298)">
        <circle id="Ellipse_366" data-name="Ellipse 366" cx="2" cy="2" r="2" transform="translate(297 1541)" fill="#122a47"/>
      </g>
      <g transform="translate(-224 -1298)">
        <circle id="Ellipse_367" data-name="Ellipse 367" cx="2" cy="2" r="2" transform="translate(297 1541)" fill="#122a47"/>
      </g>
      <g transform="translate(-190 -1298)">
        <circle id="Ellipse_368" data-name="Ellipse 368" cx="2" cy="2" r="2" transform="translate(297 1541)" fill="#122a47"/>
      </g>
      <g transform="translate(-156 -1298)">
        <circle id="Ellipse_369" data-name="Ellipse 369" cx="2" cy="2" r="2" transform="translate(297 1541)" fill="#122a47"/>
      </g>
      <g transform="translate(-122 -1298)">
        <circle id="Ellipse_370" data-name="Ellipse 370" cx="2" cy="2" r="2" transform="translate(297 1541)" fill="#122a47"/>
      </g>
      <g transform="translate(-88 -1298)">
        <circle id="Ellipse_371" data-name="Ellipse 371" cx="2" cy="2" r="2" transform="translate(297 1541)" fill="#122a47"/>
      </g>
      <g transform="translate(-54 -1298)">
        <circle id="Ellipse_372" data-name="Ellipse 372" cx="2" cy="2" r="2" transform="translate(297 1541)" fill="#122a47"/>
      </g>
      <g transform="translate(-20 -1298)">
        <circle id="Ellipse_373" data-name="Ellipse 373" cx="2" cy="2" r="2" transform="translate(297 1541)" fill="#122a47"/>
      </g>
      <g transform="translate(14 -1298)">
        <circle id="Ellipse_374" data-name="Ellipse 374" cx="2" cy="2" r="2" transform="translate(297 1541)" fill="#122a47"/>
      </g>
      <g transform="translate(48 -1298)">
        <circle id="Ellipse_375" data-name="Ellipse 375" cx="2" cy="2" r="2" transform="translate(297 1541)" fill="#122a47"/>
      </g>
      <g transform="translate(-292 -1264)">
        <circle id="Ellipse_376" data-name="Ellipse 376" cx="2" cy="2" r="2" transform="translate(297 1541)" fill="#122a47"/>
      </g>
      <g transform="translate(-258 -1264)">
        <circle id="Ellipse_377" data-name="Ellipse 377" cx="2" cy="2" r="2" transform="translate(297 1541)" fill="#122a47"/>
      </g>
      <g transform="translate(-224 -1264)">
        <circle id="Ellipse_378" data-name="Ellipse 378" cx="2" cy="2" r="2" transform="translate(297 1541)" fill="#122a47"/>
      </g>
      <g transform="translate(-190 -1264)">
        <circle id="Ellipse_379" data-name="Ellipse 379" cx="2" cy="2" r="2" transform="translate(297 1541)" fill="#122a47"/>
      </g>
      <g transform="translate(-156 -1264)">
        <circle id="Ellipse_380" data-name="Ellipse 380" cx="2" cy="2" r="2" transform="translate(297 1541)" fill="#122a47"/>
      </g>
      <g transform="translate(-122 -1264)">
        <circle id="Ellipse_381" data-name="Ellipse 381" cx="2" cy="2" r="2" transform="translate(297 1541)" fill="#122a47"/>
      </g>
      <g transform="translate(-88 -1264)">
        <circle id="Ellipse_382" data-name="Ellipse 382" cx="2" cy="2" r="2" transform="translate(297 1541)" fill="#122a47"/>
      </g>
      <g transform="translate(-54 -1264)">
        <circle id="Ellipse_383" data-name="Ellipse 383" cx="2" cy="2" r="2" transform="translate(297 1541)" fill="#122a47"/>
      </g>
      <g transform="translate(-20 -1264)">
        <circle id="Ellipse_384" data-name="Ellipse 384" cx="2" cy="2" r="2" transform="translate(297 1541)" fill="#122a47"/>
      </g>
      <g transform="translate(14 -1264)">
        <circle id="Ellipse_385" data-name="Ellipse 385" cx="2" cy="2" r="2" transform="translate(297 1541)" fill="#122a47"/>
      </g>
      <g transform="translate(48 -1264)">
        <circle id="Ellipse_386" data-name="Ellipse 386" cx="2" cy="2" r="2" transform="translate(297 1541)" fill="#122a47"/>
      </g>
      <g transform="translate(-292 -1230)">
        <circle id="Ellipse_387" data-name="Ellipse 387" cx="2" cy="2" r="2" transform="translate(297 1541)" fill="#122a47"/>
      </g>
      <g transform="translate(-258 -1230)">
        <circle id="Ellipse_388" data-name="Ellipse 388" cx="2" cy="2" r="2" transform="translate(297 1541)" fill="#122a47"/>
      </g>
      <g transform="translate(-224 -1230)">
        <circle id="Ellipse_389" data-name="Ellipse 389" cx="2" cy="2" r="2" transform="translate(297 1541)" fill="#122a47"/>
      </g>
      <g transform="translate(-190 -1230)">
        <circle id="Ellipse_390" data-name="Ellipse 390" cx="2" cy="2" r="2" transform="translate(297 1541)" fill="#122a47"/>
      </g>
      <g transform="translate(-156 -1230)">
        <circle id="Ellipse_391" data-name="Ellipse 391" cx="2" cy="2" r="2" transform="translate(297 1541)" fill="#122a47"/>
      </g>
      <g transform="translate(-122 -1230)">
        <circle id="Ellipse_392" data-name="Ellipse 392" cx="2" cy="2" r="2" transform="translate(297 1541)" fill="#122a47"/>
      </g>
      <g transform="translate(-88 -1230)">
        <circle id="Ellipse_393" data-name="Ellipse 393" cx="2" cy="2" r="2" transform="translate(297 1541)" fill="#122a47"/>
      </g>
      <g transform="translate(-54 -1230)">
        <circle id="Ellipse_394" data-name="Ellipse 394" cx="2" cy="2" r="2" transform="translate(297 1541)" fill="#122a47"/>
      </g>
      <g transform="translate(-20 -1230)">
        <circle id="Ellipse_395" data-name="Ellipse 395" cx="2" cy="2" r="2" transform="translate(297 1541)" fill="#122a47"/>
      </g>
      <g transform="translate(14 -1230)">
        <circle id="Ellipse_396" data-name="Ellipse 396" cx="2" cy="2" r="2" transform="translate(297 1541)" fill="#122a47"/>
      </g>
      <g transform="translate(48 -1230)">
        <circle id="Ellipse_397" data-name="Ellipse 397" cx="2" cy="2" r="2" transform="translate(297 1541)" fill="#122a47"/>
      </g>
      <g transform="translate(-292 -1196)">
        <circle id="Ellipse_398" data-name="Ellipse 398" cx="2" cy="2" r="2" transform="translate(297 1541)" fill="#122a47"/>
      </g>
      <g transform="translate(-258 -1196)">
        <circle id="Ellipse_399" data-name="Ellipse 399" cx="2" cy="2" r="2" transform="translate(297 1541)" fill="#122a47"/>
      </g>
      <g transform="translate(-224 -1196)">
        <circle id="Ellipse_400" data-name="Ellipse 400" cx="2" cy="2" r="2" transform="translate(297 1541)" fill="#122a47"/>
      </g>
      <g transform="translate(-190 -1196)">
        <circle id="Ellipse_401" data-name="Ellipse 401" cx="2" cy="2" r="2" transform="translate(297 1541)" fill="#122a47"/>
      </g>
      <g transform="translate(-156 -1196)">
        <circle id="Ellipse_402" data-name="Ellipse 402" cx="2" cy="2" r="2" transform="translate(297 1541)" fill="#122a47"/>
      </g>
      <g transform="translate(-122 -1196)">
        <circle id="Ellipse_403" data-name="Ellipse 403" cx="2" cy="2" r="2" transform="translate(297 1541)" fill="#122a47"/>
      </g>
      <g transform="translate(-88 -1196)">
        <circle id="Ellipse_404" data-name="Ellipse 404" cx="2" cy="2" r="2" transform="translate(297 1541)" fill="#122a47"/>
      </g>
      <g transform="translate(-54 -1196)">
        <circle id="Ellipse_405" data-name="Ellipse 405" cx="2" cy="2" r="2" transform="translate(297 1541)" fill="#122a47"/>
      </g>
      <g transform="translate(-20 -1196)">
        <circle id="Ellipse_406" data-name="Ellipse 406" cx="2" cy="2" r="2" transform="translate(297 1541)" fill="#122a47"/>
      </g>
      <g transform="translate(14 -1196)">
        <circle id="Ellipse_407" data-name="Ellipse 407" cx="2" cy="2" r="2" transform="translate(297 1541)" fill="#122a47"/>
      </g>
      <g transform="translate(48 -1196)">
        <circle id="Ellipse_408" data-name="Ellipse 408" cx="2" cy="2" r="2" transform="translate(297 1541)" fill="#122a47"/>
      </g>
    </g>
  </g>
</svg>
